<?xml version="1.0" encoding="UTF-8" standalone="no"?>
<!DOCTYPE svg PUBLIC "-//W3C//DTD SVG 1.1//EN" "http://www.w3.org/Graphics/SVG/1.1/DTD/svg11.dtd">
<svg width="100%" height="100%" viewBox="0 0 303 136" version="1.1" xmlns="http://www.w3.org/2000/svg" xmlns:xlink="http://www.w3.org/1999/xlink" xml:space="preserve" xmlns:serif="http://www.serif.com/" style="fill-rule:evenodd;clip-rule:evenodd;stroke-linejoin:round;stroke-miterlimit:2;">
    <g transform="matrix(1,0,0,1,-16.9955,-7.74743)">
        <g id="ninja">
            <g id="shadow" transform="matrix(0.925926,0,0,0.925926,-294.434,-105.022)">
                <path d="M357.73,248.514L357.73,178.514L377.23,178.514L404.53,217.014L404.53,178.514L423.03,178.514L423.03,248.514L404.53,248.514L376.23,208.614L376.23,248.514L357.73,248.514ZM440.03,248.514L440.03,178.514L458.53,178.514L458.53,248.514L440.03,248.514ZM475.53,248.514L475.53,178.514L495.03,178.514L522.33,217.014L522.33,178.514L540.83,178.514L540.83,248.514L522.33,248.514L494.03,208.614L494.03,248.514L475.53,248.514ZM557.83,268.514L557.83,178.514L576.33,178.514L576.33,268.514L557.83,268.514ZM590.03,248.514L616.83,178.514L636.73,178.514L663.53,248.514L643.93,248.514L639.83,237.314L613.73,237.314L609.63,248.514L590.03,248.514ZM619.73,221.014L633.83,221.014L626.83,201.614L619.73,221.014Z" style="fill:rgb(16,16,21);"/>
            </g>
            <g id="text" transform="matrix(0.925926,0,0,0.925926,-304.159,-113.269)">
                <path d="M357.73,248.514L357.73,178.514L377.23,178.514L404.53,217.014L404.53,178.514L423.03,178.514L423.03,248.514L404.53,248.514L376.23,208.614L376.23,248.514L357.73,248.514ZM440.03,248.514L440.03,178.514L458.53,178.514L458.53,248.514L440.03,248.514ZM475.53,248.514L475.53,178.514L495.03,178.514L522.33,217.014L522.33,178.514L540.83,178.514L540.83,248.514L522.33,248.514L494.03,208.614L494.03,248.514L475.53,248.514ZM557.83,268.514L557.83,178.514L576.33,178.514L576.33,268.514L557.83,268.514ZM590.03,248.514L616.83,178.514L636.73,178.514L663.53,248.514L643.93,248.514L639.83,237.314L613.73,237.314L609.63,248.514L590.03,248.514ZM619.73,221.014L633.83,221.014L626.83,201.614L619.73,221.014Z" style="fill:url(#_Linear1);"/>
            </g>
            <g id="outline" transform="matrix(0.925926,0,0,0.925926,-310.139,-121.689)">
                <path d="M353.41,174.194L379.463,174.194L400.21,203.453L400.21,174.194L427.35,174.194L427.35,252.834L402.298,252.834L380.55,222.172L380.55,252.834L353.41,252.834L353.41,174.194ZM357.73,248.514L376.23,248.514L376.23,208.614L404.53,248.514L423.03,248.514L423.03,178.514L404.53,178.514L404.53,217.014L377.23,178.514L357.73,178.514L357.73,248.514ZM435.71,174.194L462.85,174.194L462.85,252.834L435.71,252.834L435.71,174.194ZM440.03,248.514L458.53,248.514L458.53,178.514L440.03,178.514L440.03,248.514ZM471.21,174.194L497.263,174.194L518.01,203.453L518.01,174.194L545.15,174.194L545.15,252.834L520.098,252.834L498.35,222.172L498.35,252.834L471.21,252.834L471.21,174.194ZM475.53,248.514L494.03,248.514L494.03,208.614L522.33,248.514L540.83,248.514L540.83,178.514L522.33,178.514L522.33,217.014L495.03,178.514L475.53,178.514L475.53,248.514ZM553.51,174.194L580.65,174.194L580.65,272.834L553.51,272.834L553.51,174.194ZM557.83,268.514L576.33,268.514L576.33,178.514L557.83,178.514L557.83,268.514ZM613.859,174.194L639.702,174.194L669.81,252.834L640.912,252.834L636.812,241.634L616.749,241.634L612.649,252.834L583.751,252.834L613.859,174.194ZM590.03,248.514L609.63,248.514L613.73,237.314L639.83,237.314L643.93,248.514L663.53,248.514L636.73,178.514L616.83,178.514L590.03,248.514ZM619.73,221.014L626.83,201.614L633.83,221.014L619.73,221.014Z" style="fill:rgb(250,250,252);"/>
            </g>
        </g>
        <g id="unseen">
            <g id="unseen-letter-u" transform="matrix(0.618133,0,0,0.618133,154.423,28.5291)">
                <path d="M-205.867,6.41C-216.146,6.41 -222.247,0.584 -222.247,-9.145L-222.247,-32.724L-212.078,-32.724L-212.078,-9.145C-212.078,-5.297 -209.715,-3.044 -205.757,-3.044C-201.8,-3.044 -199.436,-5.297 -199.436,-9.145L-199.436,-32.724L-189.268,-32.724L-189.268,-9.145C-189.268,0.584 -195.424,6.41 -205.867,6.41Z" style="fill:url(#_Linear2);"/>
            </g>
            <g id="unseen-letter-n" transform="matrix(0.618133,0,0,0.618133,154.423,28.5291)">
                <path d="M-183.222,5.751L-183.222,-32.724L-172.504,-32.724L-157.498,-11.563L-157.498,-32.724L-147.33,-32.724L-147.33,5.751L-157.498,5.751L-173.053,-16.18L-173.053,5.751L-183.222,5.751Z" style="fill:url(#_Linear3);"/>
            </g>
            <g id="unseen-letter-s" transform="matrix(0.618133,0,0,0.618133,154.423,28.5291)">
                <path d="M-127.268,6.41C-134.523,6.41 -141.614,2.068 -142.383,-2.934L-132.27,-5.737C-131.61,-3.868 -130.016,-2.439 -127.433,-2.329C-125.399,-2.274 -123.53,-3.538 -123.53,-5.462C-123.53,-6.726 -124.41,-7.99 -126.388,-8.485L-132.16,-9.969C-138.151,-11.508 -141.614,-15.63 -141.614,-21.402C-141.614,-28.932 -136.337,-33.384 -127.268,-33.384C-120.067,-33.384 -115.395,-30.746 -112.757,-24.26L-122.816,-21.347C-123.2,-22.776 -124.684,-24.645 -127.268,-24.645C-129.741,-24.645 -131.17,-23.49 -131.17,-21.402C-131.17,-20.083 -130.016,-19.038 -127.982,-18.544L-122.156,-17.06C-116.275,-15.576 -112.812,-10.904 -112.812,-5.407C-112.812,2.178 -118.254,6.41 -127.268,6.41Z" style="fill:url(#_Linear4);"/>
            </g>
            <g id="unseen-letter-e1" transform="matrix(0.618133,0,0,0.618133,154.423,28.5291)">
                <path d="M-107.755,5.751L-107.755,-32.724L-81.977,-32.724L-81.977,-23.38L-97.587,-23.38L-97.587,-18.049L-84.945,-18.049L-84.945,-8.98L-97.587,-8.98L-97.587,-3.593L-81.592,-3.593L-81.592,5.751L-107.755,5.751Z" style="fill:url(#_Linear5);"/>
            </g>
            <g id="unseen-letter-e2" transform="matrix(0.618133,0,0,0.618133,154.423,28.5291)">
                <path d="M-75.546,5.751L-75.546,-32.724L-49.768,-32.724L-49.768,-23.38L-65.378,-23.38L-65.378,-18.049L-52.736,-18.049L-52.736,-8.98L-65.378,-8.98L-65.378,-3.593L-49.383,-3.593L-49.383,5.751L-75.546,5.751Z" style="fill:url(#_Linear6);"/>
            </g>
            <g id="unseen-letter-n1" serif:id="unseen-letter-n" transform="matrix(0.618133,0,0,0.618133,154.423,28.5291)">
                <path d="M-43.337,5.751L-43.337,-32.724L-32.619,-32.724L-17.613,-11.563L-17.613,-32.724L-7.445,-32.724L-7.445,5.751L-17.613,5.751L-33.168,-16.18L-33.168,5.751L-43.337,5.751Z" style="fill:url(#_Linear7);"/>
            </g>
            <g id="unseen-semicolon" transform="matrix(0.618133,0,0,0.618133,154.423,28.5291)">
                <path d="M0,5.759L0,-11.507L17.26,-11.507L17.26,4.35C17.26,13.293 6.745,17.266 6.745,17.266L3.857,13.943C3.501,13.532 3.576,12.908 4.012,12.583C7.836,9.724 7.835,7.173 7.835,7.173L7.837,5.759L0,5.759ZM0,-32.735L17.26,-32.735L17.26,-15.475L0,-15.475L0,-32.735Z" style="fill:url(#_Linear8);"/>
            </g>
        </g>
    </g>
    <defs>
        <linearGradient id="_Linear1" x1="0" y1="0" x2="1" y2="0" gradientUnits="userSpaceOnUse" gradientTransform="matrix(4.27434e-15,69.8053,-69.8053,4.27434e-15,446.635,178.643)"><stop offset="0" style="stop-color:rgb(247,68,244);stop-opacity:1"/><stop offset="1" style="stop-color:rgb(221,30,230);stop-opacity:1"/></linearGradient>
        <linearGradient id="_Linear2" x1="0" y1="0" x2="1" y2="0" gradientUnits="userSpaceOnUse" gradientTransform="matrix(2.4631e-15,40.2254,-8.50673,5.20887e-16,-37.7917,-33.9799)"><stop offset="0" style="stop-color:rgb(255,255,98);stop-opacity:1"/><stop offset="1" style="stop-color:rgb(236,232,62);stop-opacity:1"/></linearGradient>
        <linearGradient id="_Linear3" x1="0" y1="0" x2="1" y2="0" gradientUnits="userSpaceOnUse" gradientTransform="matrix(2.4631e-15,40.2254,-8.50673,5.20887e-16,-37.7917,-33.9799)"><stop offset="0" style="stop-color:rgb(255,255,98);stop-opacity:1"/><stop offset="1" style="stop-color:rgb(236,232,62);stop-opacity:1"/></linearGradient>
        <linearGradient id="_Linear4" x1="0" y1="0" x2="1" y2="0" gradientUnits="userSpaceOnUse" gradientTransform="matrix(2.4631e-15,40.2254,-8.50673,5.20887e-16,-37.7917,-33.9799)"><stop offset="0" style="stop-color:rgb(255,255,98);stop-opacity:1"/><stop offset="1" style="stop-color:rgb(236,232,62);stop-opacity:1"/></linearGradient>
        <linearGradient id="_Linear5" x1="0" y1="0" x2="1" y2="0" gradientUnits="userSpaceOnUse" gradientTransform="matrix(2.4631e-15,40.2254,-8.50673,5.20887e-16,-37.7917,-33.9799)"><stop offset="0" style="stop-color:rgb(255,255,98);stop-opacity:1"/><stop offset="1" style="stop-color:rgb(236,232,62);stop-opacity:1"/></linearGradient>
        <linearGradient id="_Linear6" x1="0" y1="0" x2="1" y2="0" gradientUnits="userSpaceOnUse" gradientTransform="matrix(2.4631e-15,40.2254,-8.50673,5.20887e-16,-37.7917,-33.9799)"><stop offset="0" style="stop-color:rgb(255,255,98);stop-opacity:1"/><stop offset="1" style="stop-color:rgb(236,232,62);stop-opacity:1"/></linearGradient>
        <linearGradient id="_Linear7" x1="0" y1="0" x2="1" y2="0" gradientUnits="userSpaceOnUse" gradientTransform="matrix(2.4631e-15,40.2254,-8.50673,5.20887e-16,-37.7917,-33.9799)"><stop offset="0" style="stop-color:rgb(255,255,98);stop-opacity:1"/><stop offset="1" style="stop-color:rgb(236,232,62);stop-opacity:1"/></linearGradient>
        <linearGradient id="_Linear8" x1="0" y1="0" x2="1" y2="0" gradientUnits="userSpaceOnUse" gradientTransform="matrix(2.4631e-15,40.2254,-8.50673,5.20887e-16,-37.7917,-33.9799)"><stop offset="0" style="stop-color:rgb(255,255,98);stop-opacity:1"/><stop offset="1" style="stop-color:rgb(236,232,62);stop-opacity:1"/></linearGradient>
    </defs>
</svg>
